<svg width="16" height="17" viewBox="0 0 16 17" fill="none" xmlns="http://www.w3.org/2000/svg">
<path d="M7.13775 0.494574C7.15829 0.494369 7.17882 0.494163 7.19998 0.493952C7.26803 0.493335 7.33608 0.492971 7.40413 0.492659C7.43897 0.492468 7.43897 0.492468 7.47452 0.492273C7.59746 0.491621 7.72039 0.491174 7.84332 0.490881C7.97034 0.490535 8.09734 0.48946 8.22435 0.48822C8.32199 0.487403 8.41962 0.487141 8.51726 0.487029C8.56408 0.486877 8.61091 0.486513 8.65773 0.485934C8.72327 0.485174 8.78876 0.485201 8.85431 0.485419C8.91023 0.485144 8.91023 0.485144 8.96729 0.484863C9.08198 0.503209 9.11814 0.533716 9.18757 0.625105C9.21016 0.711531 9.21016 0.711531 9.22078 0.820418C9.22291 0.840965 9.22504 0.861512 9.22723 0.882681C9.23226 0.932401 9.23699 0.982152 9.24151 1.03192C9.24989 1.12306 9.2589 1.21412 9.26805 1.30518C9.2792 1.41636 9.29004 1.52757 9.30086 1.63878C9.303 1.66062 9.30514 1.68246 9.30735 1.70497C9.33012 1.93921 9.34956 2.17079 9.34382 2.40636C9.39102 2.41608 9.39102 2.41608 9.43916 2.42601C10.0861 2.56528 10.6789 2.81654 11.2428 3.16148C11.3111 3.196 11.3111 3.196 11.3724 3.1636C11.4374 3.12518 11.4928 3.08397 11.5506 3.03538C11.5719 3.0176 11.5933 2.99982 11.6152 2.9815C11.6491 2.95301 11.6491 2.95301 11.6837 2.92393C11.872 2.76708 12.0614 2.6122 12.2553 2.46223C12.3371 2.39885 12.4168 2.33479 12.4952 2.26707C12.6075 2.17047 12.6874 2.10198 12.8321 2.06456C13.0827 2.13417 13.2826 2.40264 13.4627 2.5825C13.4879 2.60756 13.513 2.63262 13.539 2.65844C13.5917 2.711 13.6444 2.7636 13.697 2.81624C13.7777 2.89685 13.8586 2.9772 13.9395 3.05754C13.9909 3.10881 14.0422 3.1601 14.0936 3.21141C14.1178 3.23537 14.1419 3.25933 14.1669 3.28402C14.1892 3.30645 14.2115 3.32888 14.2346 3.352C14.264 3.3814 14.264 3.3814 14.2941 3.4114C14.3692 3.49822 14.4026 3.56917 14.4196 3.6826C14.402 3.81361 14.3389 3.88879 14.2559 3.98643C14.2405 4.00532 14.2251 4.0242 14.2091 4.04365C14.1608 4.10249 14.1118 4.16073 14.0626 4.21885C14.0474 4.23692 14.0322 4.25498 14.0166 4.27359C13.9445 4.35937 13.872 4.44481 13.7993 4.53001C13.7048 4.64171 13.6131 4.75534 13.523 4.87059C13.4688 4.9376 13.4688 4.9376 13.4166 4.99193C13.3653 5.04264 13.3653 5.04264 13.3126 5.1251C13.3421 5.25355 13.3984 5.35813 13.4663 5.4703C13.7378 5.91938 13.922 6.41905 14.0471 6.92764C14.061 6.98348 14.0772 7.03875 14.0938 7.09385C14.1679 7.13088 14.2237 7.13424 14.3062 7.14151C14.3374 7.14433 14.3686 7.14715 14.4008 7.15006C14.4346 7.15303 14.4685 7.15599 14.5034 7.15904C14.5748 7.16562 14.6462 7.17221 14.7177 7.17882C14.8305 7.18912 14.9433 7.19931 15.0561 7.20924C15.1648 7.21887 15.2736 7.22896 15.3823 7.23912C15.4158 7.24195 15.4493 7.24479 15.4839 7.24771C15.6633 7.26481 15.8097 7.28838 15.9688 7.3751C16.0131 7.46359 16.005 7.53884 16.0061 7.63778C16.0064 7.65832 16.0066 7.67885 16.0069 7.70001C16.0077 7.76806 16.0082 7.83611 16.0086 7.90416C16.0089 7.939 16.0089 7.939 16.0091 7.97455C16.01 8.09749 16.0106 8.22042 16.011 8.34335C16.0115 8.47037 16.0129 8.59737 16.0145 8.72438C16.0156 8.82202 16.0159 8.91965 16.0161 9.01729C16.0163 9.06411 16.0168 9.11094 16.0175 9.15776C16.0185 9.22331 16.0185 9.28878 16.0183 9.35434C16.0186 9.39162 16.0188 9.42891 16.0191 9.46732C16.0001 9.5626 16.0001 9.5626 15.9303 9.63634C15.8438 9.68764 15.7913 9.70646 15.6924 9.71614C15.6631 9.71926 15.6339 9.72237 15.6038 9.72559C15.5726 9.72836 15.5414 9.73113 15.5092 9.73399C15.4767 9.73728 15.4443 9.74057 15.4108 9.74396C15.3071 9.75433 15.2034 9.76393 15.0997 9.77354C15.0302 9.78045 14.9608 9.78741 14.8914 9.79442C14.8245 9.80101 14.7577 9.80756 14.6909 9.81407C14.6598 9.81709 14.6288 9.82012 14.5968 9.82324C14.4283 9.8388 14.2631 9.8469 14.0938 9.84385C14.0877 9.87459 14.0816 9.90533 14.0753 9.93699C13.9441 10.5595 13.7068 11.2158 13.3464 11.7442C13.3296 11.7781 13.3296 11.7781 13.3126 11.8126C13.3489 11.9047 13.4015 11.9753 13.4648 12.0506C13.4826 12.072 13.5004 12.0933 13.5187 12.1153C13.5377 12.1379 13.5567 12.1604 13.5762 12.1837C13.7331 12.372 13.888 12.5614 14.0379 12.7553C14.1013 12.8371 14.1654 12.9168 14.2331 12.9952C14.3297 13.1076 14.3982 13.1874 14.4356 13.3321C14.3507 13.6378 13.9857 13.8917 13.7625 14.112C13.5901 14.2824 13.4198 14.4528 13.2622 14.6372C13.1462 14.7721 13.0374 14.8873 12.8634 14.9356C12.7046 14.8946 12.6102 14.8075 12.4884 14.7004C12.3854 14.6112 12.2793 14.5258 12.1739 14.4396C12.1279 14.4016 12.0818 14.3636 12.0358 14.3257C11.827 14.1534 11.6179 13.9814 11.4063 13.8126C11.2834 13.857 11.1727 13.9162 11.0586 13.979C10.5755 14.2436 10.0732 14.428 9.5406 14.5654C9.44307 14.5832 9.44307 14.5832 9.40632 14.6251C9.39916 14.6726 9.39389 14.7203 9.38943 14.7681C9.3865 14.7986 9.38358 14.8291 9.38056 14.8605C9.3775 14.8937 9.37444 14.9269 9.37129 14.9612C9.36456 15.0311 9.35782 15.1011 9.35109 15.1711C9.34061 15.2817 9.33019 15.3923 9.31983 15.5029C9.3098 15.6094 9.29954 15.716 9.28926 15.8225C9.28626 15.8553 9.28326 15.8881 9.28018 15.9219C9.26299 16.099 9.24299 16.268 9.18757 16.4376C9.07467 16.5129 9.02163 16.5085 8.88723 16.5097C8.86638 16.5099 8.84554 16.5102 8.82406 16.5105C8.75517 16.5112 8.68628 16.5115 8.61738 16.5117C8.56947 16.512 8.52156 16.5123 8.47365 16.5126C8.37322 16.5131 8.2728 16.5133 8.17237 16.5134C8.0437 16.5136 7.91506 16.5147 7.7864 16.5162C7.68745 16.5171 7.58851 16.5173 7.48955 16.5174C7.44212 16.5175 7.39468 16.5179 7.34725 16.5185C7.28088 16.5194 7.21459 16.5192 7.14821 16.5188C7.11047 16.519 7.07272 16.5191 7.03383 16.5193C6.93757 16.5001 6.93757 16.5001 6.86369 16.4303C6.81255 16.3438 6.7937 16.2912 6.78404 16.1924C6.78092 16.1632 6.7778 16.134 6.77459 16.1039C6.77043 16.057 6.77043 16.057 6.76619 16.0093C6.7629 15.9768 6.7596 15.9443 6.75621 15.9108C6.74585 15.8072 6.73625 15.7034 6.72664 15.5997C6.71973 15.5303 6.71277 15.4608 6.70576 15.3914C6.69917 15.3246 6.69262 15.2577 6.68611 15.1909C6.68157 15.1444 6.68157 15.1444 6.67694 15.0969C6.66138 14.9283 6.65327 14.7631 6.65632 14.5939C6.62486 14.5874 6.5934 14.5809 6.56099 14.5742C5.91408 14.4349 5.32122 14.1837 4.7574 13.8387C4.68905 13.8042 4.68905 13.8042 4.62777 13.8366C4.5627 13.875 4.50735 13.9162 4.44954 13.9648C4.42821 13.9826 4.40688 14.0004 4.3849 14.0187C4.36232 14.0377 4.33974 14.0567 4.31648 14.0763C4.11035 14.2479 3.90238 14.4165 3.69038 14.5808C3.63014 14.6279 3.57052 14.6759 3.51191 14.7251C3.37685 14.8374 3.27832 14.9168 3.09382 14.9064C2.90351 14.8021 2.76049 14.644 2.60884 14.4911C2.58074 14.463 2.55264 14.4348 2.52369 14.4059C2.46455 14.3466 2.40547 14.2873 2.34649 14.2279C2.27085 14.1518 2.19501 14.0758 2.11909 13.9999C2.04657 13.9274 1.97419 13.8547 1.90181 13.7821C1.87453 13.7548 1.84725 13.7275 1.81915 13.6993C1.79411 13.6741 1.76906 13.6488 1.74326 13.6228C1.72113 13.6006 1.69901 13.5783 1.67621 13.5554C1.59905 13.472 1.575 13.3992 1.57759 13.2844C1.61511 13.1329 1.74288 13.0202 1.84382 12.9064C1.87397 12.8713 1.90403 12.8363 1.93403 12.8011C1.99789 12.7263 2.06196 12.6517 2.12617 12.5773C2.2324 12.4535 2.33539 12.3274 2.43818 12.2008C2.51966 12.1012 2.60329 12.0036 2.68757 11.9064C2.65271 11.8098 2.61029 11.7208 2.5605 11.6313C2.25304 11.0781 2.02719 10.4972 1.90632 9.8751C1.87853 9.87562 1.87853 9.87562 1.85018 9.87615C1.64712 9.87826 1.44837 9.8656 1.24641 9.84532C1.19862 9.84056 1.19862 9.84056 1.14986 9.83571C1.0831 9.82897 1.01634 9.82214 0.949598 9.81521C0.847408 9.80476 0.745162 9.79507 0.642896 9.78538C0.577787 9.77872 0.512683 9.772 0.447584 9.76524C0.417082 9.76247 0.386581 9.7597 0.355155 9.75684C0.326767 9.75372 0.29838 9.7506 0.269132 9.74739C0.24426 9.74489 0.219388 9.74239 0.193762 9.73982C0.0982756 9.71068 0.0593245 9.67409 7.4083e-05 9.59385C-0.0160092 9.4978 -0.0160092 9.4978 -0.0165961 9.38371C-0.017 9.35244 -0.017 9.35244 -0.017412 9.32053C-0.01812 9.2518 -0.0179096 9.1831 -0.0176261 9.11436C-0.0177897 9.0665 -0.0179859 9.01863 -0.0182131 8.97077C-0.0185382 8.87052 -0.0183957 8.77029 -0.0179389 8.67004C-0.0174016 8.54162 -0.0181362 8.41324 -0.0192354 8.28481C-0.0199219 8.186 -0.0198772 8.08719 -0.0196179 7.98836C-0.0195922 7.94102 -0.0198068 7.89367 -0.0202668 7.84633C-0.0208117 7.78011 -0.0203581 7.71397 -0.0196479 7.64775C-0.0196178 7.6101 -0.0195878 7.57245 -0.0195568 7.53365C7.4083e-05 7.4376 7.40811e-05 7.4376 0.0699651 7.36375C0.156404 7.31256 0.20895 7.29374 0.30779 7.28407C0.351609 7.27939 0.351609 7.27939 0.396313 7.27462C0.443143 7.27046 0.443143 7.27046 0.490919 7.26622C0.523399 7.26293 0.555879 7.25964 0.589343 7.25624C0.693008 7.24588 0.796728 7.23628 0.900465 7.22667C0.969907 7.21976 1.03934 7.2128 1.10878 7.20579C1.17561 7.1992 1.24244 7.19265 1.30928 7.18614C1.34031 7.18311 1.37134 7.18009 1.40331 7.17697C1.57185 7.16141 1.73707 7.1533 1.90632 7.15635C1.91245 7.12562 1.91857 7.09488 1.92488 7.06321C2.06011 6.4218 2.31281 5.79574 2.66829 5.24376C2.69482 5.18669 2.69482 5.18669 2.66314 5.12866C2.62516 5.06276 2.58424 5.00775 2.53535 4.94957C2.51757 4.92824 2.49979 4.90691 2.48147 4.88494C2.45298 4.85107 2.45298 4.85107 2.4239 4.81651C2.26705 4.62819 2.11217 4.43879 1.9622 4.24492C1.89882 4.1631 1.83476 4.08336 1.76704 4.00499C1.67044 3.89265 1.60195 3.81277 1.56453 3.66807C1.63414 3.41747 1.90261 3.21758 2.08247 3.03746C2.10753 3.0123 2.13259 2.98713 2.15841 2.96121C2.21097 2.90849 2.26357 2.85581 2.31621 2.80318C2.39682 2.7225 2.47717 2.64158 2.55751 2.56065C2.60878 2.50929 2.66007 2.45793 2.71138 2.4066C2.73534 2.38241 2.7593 2.35823 2.78398 2.33331C2.80642 2.31097 2.82885 2.28864 2.85196 2.26562C2.87157 2.24598 2.89117 2.22633 2.91137 2.20608C2.99542 2.13333 3.06936 2.09898 3.17781 2.07628C3.34113 2.10401 3.439 2.20693 3.56257 2.31261C3.6185 2.35826 3.67449 2.40383 3.73054 2.44932C3.78914 2.49749 3.84774 2.54567 3.90632 2.59386C3.99125 2.66318 4.07618 2.73248 4.16145 2.80137C4.22543 2.8546 4.28714 2.90836 4.34846 2.96446C4.36496 2.97919 4.38146 2.99391 4.39846 3.00908C4.44496 3.05071 4.49091 3.09296 4.53682 3.13524C4.6214 3.19818 4.6214 3.19818 4.71602 3.17283C4.82554 3.11869 4.93054 3.05897 5.03523 2.9962C5.52343 2.71423 6.05103 2.54921 6.59382 2.40636C6.60768 2.2957 6.6213 2.18502 6.63484 2.07432C6.63907 2.03993 6.6433 2.00554 6.64766 1.97011C6.67174 1.77027 6.69328 1.57043 6.71138 1.36998C6.71332 1.34887 6.71527 1.32777 6.71727 1.30602C6.72681 1.20242 6.73597 1.09883 6.7445 0.995146C6.74795 0.957305 6.7514 0.919464 6.75496 0.880476C6.7578 0.846991 6.76064 0.813506 6.76356 0.779005C6.78316 0.678138 6.81514 0.614329 6.87507 0.531355C6.96361 0.487085 7.03875 0.495392 7.13775 0.494574ZM5.43757 6.1251C4.82339 6.7938 4.46793 7.69365 4.5029 8.60493C4.5559 9.59885 4.98021 10.47 5.71101 11.1416C6.47771 11.7935 7.36557 12.0292 8.3585 11.9778C9.26252 11.9044 10.1004 11.4242 10.6838 10.7409C11.3353 9.94263 11.5499 9.00051 11.462 7.98367C11.4445 7.85025 11.413 7.72277 11.3751 7.59385C11.3644 7.55571 11.3538 7.51756 11.3428 7.47825C11.0714 6.58608 10.439 5.85204 9.62507 5.40635C8.20037 4.65747 6.54579 5.00428 5.43757 6.1251Z" fill="#F8D146"/>
</svg>
